<svg id="Layer_1" data-name="Layer 1" xmlns="http://www.w3.org/2000/svg" viewBox="0 0 514.26 108.42"><defs><style>.cls-1{fill:#020202;}</style></defs><title>guitar_title</title><path class="cls-1" d="M748.77,170.67l-45.64-31a2,2,0,0,1-.53-2.79,2,2,0,0,1,2.78-.52l.12.08Z" transform="translate(-702.26 -126.58)"/><path class="cls-1" d="M732.48,195.31l64.74-27.89a.54.54,0,0,1,.52.94h0l-83.46,57.7a1.31,1.31,0,0,1-2.06-.93v0l-9.88-86.91a2,2,0,0,1,4-.45v0l8.53,87.05-2.06-1,84.34-56.41.52.95Z" transform="translate(-702.26 -126.58)"/><path class="cls-1" d="M823.22,155.48l-1.13,76.86-1.27-.79L875,205.11l-53.39,28a.86.86,0,0,1-1.17-.36.81.81,0,0,1-.1-.39v0l-1.12-76.86a2,2,0,0,1,4-.06Z" transform="translate(-702.26 -126.58)"/><path class="cls-1" d="M875.08,213l-2.88-83a2,2,0,1,1,4-.14.34.34,0,0,1,0,.1Z" transform="translate(-702.26 -126.58)"/><path class="cls-1" d="M901.81,129.05l61.9,56.28-64.52-53.26a2,2,0,1,1,2.55-3.08Z" transform="translate(-702.26 -126.58)"/><path class="cls-1" d="M900.12,179.32l61.32,54.8-63.92-51.76a2,2,0,0,1,2.52-3.11Z" transform="translate(-702.26 -126.58)"/><path class="cls-1" d="M933.09,151.89l-1.83,74.6-2.17-74.59a2,2,0,0,1,4-.12Z" transform="translate(-702.26 -126.58)"/><path class="cls-1" d="M1015.86,152.07l-2.79,80.73L1011.86,152a2,2,0,0,1,4-.06Z" transform="translate(-702.26 -126.58)"/><path class="cls-1" d="M983.89,129.06l65.41,55.77-67.93-52.66a2,2,0,0,1,2.45-3.17Z" transform="translate(-702.26 -126.58)"/><path d="M1057.54,230.26,1096,152.72l1-1.92.86,1.93L1133,231.94,1096,153.57h1.81L1061.14,232a2,2,0,0,1-2.65,1,2,2,0,0,1-1-2.66Z" transform="translate(-702.26 -126.58)"/><path d="M1113.6,178.28l-51,30.22,48.82-33.59a2,2,0,1,1,2.27,3.3Z" transform="translate(-702.26 -126.58)"/><path class="cls-1" d="M1151,149.84l57.18-23.14h0a1.44,1.44,0,0,1,1.89.8,1.46,1.46,0,0,1-.39,1.64l-58.82,51,0-1.16,65.69,55.11-66.66-53.93a.74.74,0,0,1-.11-1.06l.07-.09h0l57.9-52,1.52,2.43-56.76,24.15a2,2,0,1,1-1.56-3.68Z" transform="translate(-702.26 -126.58)"/><path class="cls-1" d="M1153.73,151.72,1150.2,235l-.47-83.35a2,2,0,0,1,4,0Z" transform="translate(-702.26 -126.58)"/></svg>